<?xml version="1.0" encoding="utf-8"?>
<!-- Generator: Adobe Illustrator 26.0.1, SVG Export Plug-In . SVG Version: 6.00 Build 0)  -->
<svg version="1.1" xmlns="http://www.w3.org/2000/svg" xmlns:xlink="http://www.w3.org/1999/xlink" x="0px" y="0px"
	 viewBox="0 0 2048 500" style="enable-background:new 0 0 2048 500;" xml:space="preserve">
<style type="text/css">
	.st0{fill:none;}
	.st1{fill:#E8E8E8;stroke:#E8E8E8;stroke-width:2;stroke-miterlimit:10;}
	.st2{fill:#E8EFF2;}
	.st3{fill:#FBFCFC;}
	.st4{fill:#66DF83;}
	.st5{fill:#4AF06F;}
	.st6{fill:#D1DBE1;}
	.st7{fill:#FCFDFD;}
	.st8{fill:#B9C5CF;}
	.st9{fill:#47F06C;}
	.st10{fill:url(#SVGID_1_);}
	.st11{font-family:'ArialMT';}
	.st12{font-size:259.202px;}
	.st13{fill:none;stroke:#E8E8E8;stroke-width:3.645;}
	.st14{fill-rule:evenodd;clip-rule:evenodd;fill:#4AF06F;}
	.st15{fill:#012046;}
</style>
<pattern  y="500" width="2048" height="500" patternUnits="userSpaceOnUse" id="pattern882" viewBox="0 -500 2048 500" style="overflow:visible;">
	<g>
		<rect y="-500" class="st0" width="2048" height="500"/>
	</g>
</pattern>
<g id="Слой_2">
	<line class="st1" x1="161.2" y1="128.3" x2="161.2" y2="390.4"/>
	<line class="st1" x1="204.3" y1="128.3" x2="204.3" y2="390.4"/>
	<line class="st1" x1="247.6" y1="128.3" x2="247.6" y2="390.4"/>
	<line class="st1" x1="293.4" y1="128.3" x2="293.4" y2="390.4"/>
	<line class="st1" x1="335" y1="128.3" x2="335" y2="390.4"/>
	<line class="st1" x1="378" y1="128.3" x2="378" y2="390.4"/>
	<line class="st1" x1="421.3" y1="128.3" x2="421.3" y2="390.4"/>
	<line class="st1" x1="144.8" y1="135.5" x2="441" y2="135.5"/>
	<line class="st1" x1="144.8" y1="172" x2="441" y2="172"/>
	<line class="st1" x1="144.8" y1="207.6" x2="441" y2="207.6"/>
	<line class="st1" x1="144.8" y1="229.7" x2="441" y2="229.7"/>
	<line class="st1" x1="144.8" y1="266.1" x2="441" y2="266.1"/>
	<line class="st1" x1="144.8" y1="286.4" x2="441" y2="286.4"/>
	<line class="st1" x1="144.8" y1="321.3" x2="441" y2="321.3"/>
	<line class="st1" x1="144.8" y1="342.2" x2="441" y2="342.2"/>
	<line class="st1" x1="144.8" y1="377.5" x2="441" y2="377.5"/>
	<line class="st1" x1="350.6" y1="390.2" x2="426.9" y2="126.8"/>
	<line class="st1" x1="306.7" y1="390.2" x2="383" y2="126.8"/>
	<line class="st1" x1="268.6" y1="390.2" x2="344.9" y2="126.8"/>
	<line class="st1" x1="220.6" y1="390.2" x2="296.8" y2="126.8"/>
	<line class="st1" x1="233.1" y1="390.2" x2="309.3" y2="126.8"/>
	<line class="st1" x1="181.9" y1="390.2" x2="258.1" y2="126.8"/>
	<line class="st1" x1="143.8" y1="390.2" x2="220" y2="126.8"/>
</g>
<g id="Layer_1" xmlns:inkscape="http://www.inkscape.org/namespaces/inkscape" xmlns:sodipodi="http://sodipodi.sourceforge.net/DTD/sodipodi-0.dtd" xmlns:svg="http://www.w3.org/2000/svg">
	
		<sodipodi:namedview  bordercolor="#000000" borderopacity="0.25" id="namedview873" inkscape:current-layer="Layer_1" inkscape:cx="425" inkscape:cy="286.38614" inkscape:deskcolor="#d1d1d1" inkscape:pagecheckerboard="0" inkscape:pageopacity="0.0" inkscape:showpageshadow="2" inkscape:window-height="1167" inkscape:window-maximized="0" inkscape:window-width="2688" inkscape:window-x="0" inkscape:window-y="25" inkscape:zoom="4.04" pagecolor="#ffffff">
		</sodipodi:namedview>
	<path id="path78" class="st2" d="M334.6,394.8c0-0.1,0.1-0.2,0.2-0.2c0,0,0,0,0.1,0.1C334.7,394.7,334.7,394.8,334.6,394.8
		L334.6,394.8z"/>
	<path id="path348" class="st3" d="M355.4,279.1c-0.2,0.2-0.3,0.3-0.5,0.4c0-0.3,0-0.6,0-0.9c0.1,0,0.2,0,0.3,0
		C355.3,278.7,355.4,278.9,355.4,279.1L355.4,279.1z"/>
	<path id="path359" class="st4" d="M343.3,270.3c0.6-2.3,1.3-4.7,2.1-7.1c0.1,0,0.2,0.1,0.2,0.2c-0.5,1.9-1,3.8-1.6,5.7
		C343.8,269.5,343.5,269.9,343.3,270.3z"/>
	<path id="path362" class="st5" d="M341.4,276.8c0.4-1.2,0.7-2.5,1.2-3.8c0.2-0.1,0.2,0,0.2,0c-0.3,1.1-0.6,2.3-0.9,3.5
		c0,0.1,0,0.2-0.1,0.3C341.6,276.8,341.5,276.8,341.4,276.8L341.4,276.8z"/>
	<path id="path363" class="st4" d="M342.8,273c0,0-0.1,0-0.2,0c0.1-0.8,0.3-1.6,0.5-2.5c0,0.6-0.1,1.2-0.2,2
		C342.9,272.8,342.8,272.9,342.8,273C342.8,273,342.8,273,342.8,273L342.8,273z"/>
	<path id="path365" class="st6" d="M346.2,263.1c0,0.1,0,0.1-0.1,0.2c-0.2,0-0.3,0-0.4,0.1c-0.1-0.1-0.1-0.1-0.2-0.2
		c0-0.1,0-0.2,0-0.4C345.6,262.8,345.9,262.9,346.2,263.1L346.2,263.1z"/>
	<path id="path370" class="st5" d="M342.9,273c0-0.1,0-0.2,0.1-0.4C343,272.7,343,272.8,342.9,273z"/>
	<path id="path478" class="st7" d="M220.8,251.6c-0.9-0.7-0.8-0.8,0.3-1.3C221.1,250.7,221,251.1,220.8,251.6z"/>
	<path id="path494" class="st7" d="M220.5,252.5c0-0.1,0-0.2,0.1-0.5C220.7,252.2,220.6,252.3,220.5,252.5z"/>
	<path id="path497" class="st7" d="M219.9,255.2c0-0.1,0-0.2,0.1-0.4C220,254.9,219.9,255,219.9,255.2z"/>
	<path id="path498" class="st7" d="M220.1,254.3c0-0.1,0-0.2,0.1-0.4C220.2,254,220.2,254.1,220.1,254.3z"/>
	<path id="path622" class="st8" d="M352.1,238.8c0,0,0.1,0.1,0.1,0.2C352.1,238.9,352.1,238.9,352.1,238.8z"/>
	<path id="path641" class="st3" d="M347.8,253.7c0-0.1,0.1-0.1,0.2-0.1c0,0,0.1,0,0.2,0c-0.2,0.4,0.8,1.1-0.4,1.2
		C347.7,254.4,347.7,254.1,347.8,253.7L347.8,253.7z"/>
	<path id="path642" class="st3" d="M348.4,253.4c0,0.1,0,0.1-0.1,0.2C348.2,253.5,348.3,253.5,348.4,253.4z"/>
	<path id="path643" class="st9" d="M273.6,252.9c0,0,0.1-0.1,0.1,0C273.7,252.9,273.6,252.9,273.6,252.9z"/>
	<path id="path647" class="st8" d="M341.3,276.9c0.1,0.1,0.1,0.3,0.1,0.6c0,0.1-0.1,0.1-0.1,0.1
		C341.3,277.3,341.3,277.1,341.3,276.9z"/>
	<path id="path648" class="st3" d="M341.2,277.6c0-0.1,0.1-0.1,0.2-0.1c0,0.1,0,0.1-0.1,0.2C341.2,277.8,341.2,277.7,341.2,277.6
		L341.2,277.6z"/>
	<path id="path702" class="st3" d="M347,278.6c-0.1,0.1-0.2,0-0.4,0c0-0.1,0.1-0.2,0.1-0.3C346.9,278.4,347,278.5,347,278.6
		L347,278.6z"/>
	<path id="path728" class="st7" d="M218.3,251.8c0.3,0,0.5,0,0.7,0c0,0.1,0,0.2-0.1,0.3C218.7,252.1,218.5,252,218.3,251.8
		L218.3,251.8z"/>
	<path id="path740" class="st7" d="M218.7,249.8c0.1-0.1,0.2,0,0.4,0c0,0.1-0.1,0.2-0.1,0.3C218.9,250,218.8,250,218.7,249.8
		L218.7,249.8z"/>
	<path id="path838" class="st3" d="M348.7,260.2c0.2,0.1,0.4,0.2,0.6,0.3c-0.2,0.2-0.5,0.4-0.7,0.6c-0.1-0.1-0.2-0.1-0.3-0.2
		C348.4,260.7,348.5,260.4,348.7,260.2L348.7,260.2z"/>
	<path id="path839" class="st3" d="M351.3,255.6c0,0.2,0,0.4,0,0.6c-0.1,0-0.2,0-0.3-0.1C351.1,256,351.2,255.8,351.3,255.6
		L351.3,255.6z"/>
	<path id="path840" class="st3" d="M349.7,257.6c0,0.1-0.1,0.2-0.2,0.2c0,0-0.1-0.1-0.1-0.1C349.5,257.7,349.6,257.6,349.7,257.6
		L349.7,257.6z"/>
	<path id="path841" class="st3" d="M348.9,255.5c0.1,0.1,0.1,0.2,0,0.3c0,0-0.1,0-0.1,0C348.9,255.7,348.9,255.6,348.9,255.5
		L348.9,255.5z"/>
	
		<pattern  id="SVGID_1_" xlink:href="#pattern882" patternTransform="matrix(0.3 0 0 -0.3 -5743.6001 -10610.5527)"  style="enable-background:new    ;">
	</pattern>
	<text transform="matrix(1 0 0 1 503.5437 355.88)" class="st10 st11 st12">	<pattern  id="SVGID_00000133496010263787900860000010787432384775437748_" xlink:href="#pattern882" patternTransform="matrix(0.3 0 0 -0.3 -5743.6001 -10610.5527)">
	</pattern>
METACODE</text>
	<text transform="matrix(1 0 0 1 503.5437 355.88)" class="st13 st11 st12">METACODE</text>
</g>
<g id="Слой_3">
	<path class="st14" d="M324.5,239.2c-3.8,0-23.3,0.2-23.9-0.2c-1.3,0.3-4.6,0-6.2,0l-15.3,0.1c-0.6,0-2.2,0.2-2.7-0.1
		c-0.3,0.5-3.8,12.3-3.9,13.6c1.2,0.4,0.6,0.8,2.4,0.8c7.1,0.1,14.4,0,21.6,0c3.2-0.1,26.6-0.4,27.6,0.1l24.1,0
		c1.4-0.3,34.9-0.1,41.2-0.1c0.8,0,0.9,0,1.2,0.2c1.3-0.2,10.7-0.1,12.8-0.1c2,0,9,0.2,11.8,0c0.5,0,0.8-0.1,1-0.2l0.3-0.9
		c0.4-0.5,3.1-9.8,3-10.4c0.2-0.3,0.1,0.1,0.3-0.6c0-0.2,0-0.5,0-0.7c-0.1-0.6-0.2-0.7-0.4-1.1c-0.6-0.2-2.2-0.4-4.2-0.4
		c-4.3-0.1-10.4,0.1-12.5,0.1c-5.6,0-11.3,0-16.9,0"/>
	<path class="st14" d="M408.4,276.6c0.1,0,0.2,0,0.3,0c0.3,0,0.1,0,0.3-0.2c1.3-0.3,1.6-2.2,1.9-3.3c0.4-1.4,0.7-2.6,1.1-4
		c0.4-1.9,1.3-3.5,1-5.6c-0.2-0.1-0.3-0.1-0.3-0.1c-0.5-1-1.7-0.6-2.8-0.7l-1.2,0c-0.7,0-1.5,0-2.2,0c-2.2,0-4.4,0-6.6,0
		c-4.4,0-8.9-0.1-13.3,0.1c-0.4-0.4-0.2,0.5-0.4-0.5c0,0.8-0.1,0.3-0.2,0.5l-1.1,0l-7.1,0l-1.7,0.1l-33.1-0.1
		c-0.6-0.1-0.2,0.1-0.4-0.4l-0.7,1.9l0,0.1l-0.5,1.2c-0.3,1.6-1,3.6-1.5,5.4c-0.4,1.9-1.2,3.7-1.5,5.5l1.2,0.1l2.3,0"/>
	<path class="st14" d="M164,245.4l48.9-0.1l1.5,0c0.1-0.4,0.2-0.5,0.3-1.1c0.6-0.8,3.4-9.8,3.5-11.5c-0.1-0.6-0.1-0.7-0.7-1l-4.6,0
		l-22.6-0.2c0,0-0.1,0-0.1-0.1l-1.7,0.1c-3.2-0.1-6.9,0-10.2,0.1c-2,0-10.7-0.4-11.4,0.2"/>
	<path class="st15" d="M357.9,220.3c-1.8,6.4-3.6,12.6-5.4,18.9c-8.1,0-16,0-24.3,0c1.8-6.3,3.6-12.4,5.4-18.8c-9.2,0-18.3,0-27.7,0
		c-1.8,6.1-3.6,12.4-5.4,18.9c-8,0-16,0-24.2,0c1.8-6.3,3.7-12.6,5.5-18.9c-9.4,0-18.5,0-27.8,0c-6.3,22.2-12.6,44.4-19,66.7
		c9.3,0,18.4,0,27.7,0c3.3-11.5,6.6-23,9.8-34.4c1.2,0.1,2.3,0.3,3.4,0.3c6.2,0,12.3,0,18.5,0c0.6,0,1.3,0,2.1,0
		c-3.3,11.5-6.5,22.7-9.7,34c9.3,0,18.5,0,28,0c3.4-11.2,6.3-22.6,9.6-33.9c8,0,15.9,0,24.1,0c-1.3,5.9-3.3,11.4-4.8,17
		c-1.5,5.6-3,11.1-4.6,16.9c0.5,0,1,0.1,1.5,0.1c11.6,0,23.2-0.1,34.8-0.1c0.4,0,0.7,0,1.1,0c2.2,0.2,3,1.3,2.4,3.4
		c-1.5,5-2.9,10-4.4,14.9c-0.2,0.6-0.4,1.3-0.6,1.9c-0.6,1.4-1.6,2.2-3.2,2.2c-1,0-1.9,0-2.9,0c-11.2,0-22.3,0-33.5,0
		c-0.5,0-0.9,0-1.5,0.1c-0.9,2.9-1.7,5.8-2.5,8.7c-5.2,18.5-10.4,37-15.6,55.5c-0.2,0.6-0.4,1.1-0.7,1.7c-0.7,1.4-1.8,2.1-3.3,2.1
		c-6,0-12.1,0-18.1,0c-1.9,0-2.7-1-2.1-3c1.5-5.4,3.1-10.8,4.7-16.2c2.7-9.3,5.3-18.7,8-28c1.8-6.4,3.6-12.8,5.4-19.1
		c0.1-0.5,0.2-1,0.4-1.7c-9.4,0-18.7,0-28.1,0c-1.2,4.1-2.3,8.2-3.5,12.3c-2.2,7.7-4.4,15.3-6.5,23c-2.7,9.6-5.4,19.1-8.2,28.7
		c-0.1,0.4-0.3,0.8-0.4,1.2c-0.7,1.8-2,2.8-4,2.8c-5.9,0-11.8,0.1-17.7,0.1c-2,0-2.8-1-2.2-2.9c0.8-3.1,1.8-6.1,2.7-9.2
		c2.9-10.2,5.8-20.4,8.8-30.6c2.2-7.8,4.5-15.5,6.7-23.3c0.2-0.6,0.3-1.3,0.5-2c-9.4,0-18.7,0-28,0c-1,3.3-1.9,6.6-2.8,9.9
		c-1.9,6.8-3.9,13.6-5.8,20.3c-3,10.6-6,21.1-9,31.7c-0.3,1.2-0.7,2.3-1.1,3.4c-0.7,1.7-2,2.7-3.9,2.7c-5.9,0-11.7,0-17.6,0
		c-2.1,0-2.9-1.2-2.3-3.2c1.3-4.7,2.7-9.4,4-14.1c3.7-12.8,7.4-25.6,11.1-38.4c1.1-3.8,2.2-7.5,3.3-11.3c0.1-0.3,0.1-0.7,0.2-1.1
		c-0.5,0-0.9-0.1-1.3-0.1c-10.7,0-21.4,0.1-32,0.1c-0.4,0-0.7,0-1.1,0c-1.7-0.1-2.6-1.3-2.2-2.9c0.6-2,1.2-4.1,1.8-6.1
		c1-3.3,2-6.7,3-10c0.8-2.6,1.7-3.3,4.4-3.3c10.4,0,20.9,0,31.3,0c0.7,0,1.3,0,2.2,0c6.4-22.2,12.7-44.4,19.1-66.7
		c-0.9,0-1.5,0-2.2,0c-10.2,0-20.4,0-30.6,0c-3.1,0-3.8-1-2.9-4.1c1.4-4.7,2.8-9.4,4.2-14c0.2-0.5,0.3-1,0.5-1.5
		c0.7-1.9,1.8-2.8,3.9-2.8c10.4,0.1,20.8,0,31.1,0c0.7,0,1.4,0,2.2,0c1-3.3,1.9-6.5,2.8-9.7c3.1-10.6,6.1-21.2,9.1-31.8
		c1.8-6.1,3.5-12.3,5.2-18.5c0.1-0.5,0.3-1,0.5-1.5c0.6-1.5,1.7-2.3,3.3-2.3c2.2,0,4.3,0,6.5,0c3.1,0,6.3,0,9.4,0c0.5,0,1,0,1.4,0
		c2.3,0.1,3.3,1.5,2.7,3.8c-2.7,9.6-5.5,19.1-8.2,28.7c-2.8,9.7-5.6,19.5-8.4,29.2c-0.2,0.6-0.3,1.3-0.5,2c9.3,0,18.4,0,27.7,0
		c0.7-2.2,1.4-4.4,2-6.6c3.2-11.4,6.5-22.7,9.7-34.1c1.9-6.6,3.8-13.2,5.7-19.8c0.6-2.1,1.9-3.1,4.1-3.1c5.6,0,11.1,0,16.7-0.1
		c0.2,0,0.4,0,0.5,0c2,0.1,3,1.6,2.5,3.5c-1.9,6.8-3.9,13.7-5.8,20.5c-3.3,11.6-6.5,23.2-9.8,34.8c-0.5,1.6-1,3.2-1.5,5
		c9.4,0,18.6,0,27.9,0c0.1-0.3,0.3-0.6,0.4-0.9c2.2-7.9,4.4-15.8,6.7-23.7c3.5-12.1,7-24.1,10.4-36.1c0.6-2,1.7-2.9,3.8-2.9
		c5.6-0.1,11.2-0.1,16.8-0.1c0.6,0,1.4,0.1,1.9,0.3c1.2,0.6,1.6,1.8,1.2,3.3c-1.4,5-2.9,10.1-4.3,15.1c-1.8,6.4-3.6,12.8-5.4,19.1
		c-2.3,8.1-4.7,16.2-7.1,24.3c-0.1,0.5-0.2,0.9-0.4,1.5c0.6,0,1,0.1,1.5,0.1c11.6,0,23.2,0,34.8,0c0.5,0,1.1,0,1.6,0
		c2.1,0.1,3.1,1.4,2.5,3.4c-1.1,4-2.3,8-3.5,12c-0.4,1.4-0.9,2.9-1.4,4.3c-0.5,1.8-1.8,2.5-3.5,2.7c-0.5,0.1-1.1,0-1.6,0
		c-11.8,0-23.5,0-35.3,0C358.9,220.3,358.4,220.3,357.9,220.3z"/>
</g>
</svg>
